# xmcd
#
# Track frame offsets: 
#        150
#        18297
#        34920
#        52717
#        69987
#        86560
#        103565
#        120940
#        137472
#        154600
#        170767
#        190667
#
# Disc length: 2772 seconds
#
# Revision: 0
# Processed by: cddbd v1.5.1PL2 Copyright (c) Steve Scherf et al.
# Submitted via: ExactAudioCopy v0.95b3
#
DISCID=880ad20c
DTITLE=Jintara Poonlarb - Lookthung Sa-On Vol 4
DYEAR=2001
DGENRE=Country
TTITLE0=Sao nam fong sa-uern
TTITLE1=Kor pieng kae song sarn
TTITLE2=Jeb leaw por leaw
TTITLE3=Ruk khon lor ..kor bok
TTITLE4=Tum tah tum jai
TTITLE5=Won aiy kuen nah
TTITLE6=Koi ruk tee park saeng
TTITLE7=Wunnee pee plien plang
TTITLE8=Huang ai pai taharn
TTITLE9=Kawa nam tah rin
TTITLE10=Toong kula sunya ruk
TTITLE11=Chewit morlam
EXTD=
EXTT0=
EXTT1=
EXTT2=
EXTT3=
EXTT4=
EXTT5=
EXTT6=
EXTT7=
EXTT8=
EXTT9=
EXTT10=
EXTT11=
PLAYORDER=
